HIERARCHY
ROOT Hips
{
  OFFSET 0.000000 100.000000 0.000000
  CHANNELS 6 Xposition Yposition Zposition Zrotation Xrotation Yrotation
  JOINT Spine
  {
    OFFSET 0.000000 15.000000 0.000000
    CHANNELS 3 Zrotation Xrotation Yrotation
    JOINT Neck
    {
      OFFSET 0.000000 30.000000 0.000000
      CHANNELS 3 Zrotation Xrotation Yrotation
      JOINT Head
      {
        OFFSET 0.000000 10.000000 0.000000
        CHANNELS 3 Zrotation Xrotation Yrotation
        End Site
        {
          OFFSET 0.000000 15.000000 0.000000
        }
      }
    }
    JOINT LeftShoulder
    {
      OFFSET 15.000000 25.000000 0.000000
      CHANNELS 3 Zrotation Xrotation Yrotation
      JOINT LeftElbow
      {
        OFFSET 28.000000 0.000000 0.000000
        CHANNELS 3 Zrotation Xrotation Yrotation
        JOINT LeftWrist
        {
          OFFSET 24.000000 0.000000 0.000000
          CHANNELS 3 Zrotation Xrotation Yrotation
          End Site
          {
            OFFSET 12.000000 0.000000 0.000000
          }
        }
      }
    }
    JOINT RightShoulder
    {
      OFFSET -15.000000 25.000000 0.000000
      CHANNELS 3 Zrotation Xrotation Yrotation
      JOINT RightElbow
      {
        OFFSET -28.000000 0.000000 0.000000
        CHANNELS 3 Zrotation Xrotation Yrotation
        JOINT RightWrist
        {
          OFFSET -24.000000 0.000000 0.000000
          CHANNELS 3 Zrotation Xrotation Yrotation
          End Site
          {
            OFFSET -12.000000 0.000000 0.000000
          }
        }
      }
    }
  }
  JOINT LeftHip
  {
    OFFSET 10.000000 0.000000 0.000000
    CHANNELS 3 Zrotation Xrotation Yrotation
    JOINT LeftKnee
    {
      OFFSET 0.000000 -42.000000 0.000000
      CHANNELS 3 Zrotation Xrotation Yrotation
      JOINT LeftAnkle
      {
        OFFSET 0.000000 -42.000000 0.000000
        CHANNELS 3 Zrotation Xrotation Yrotation
        End Site
        {
          OFFSET 0.000000 -7.000000 12.000000
        }
      }
    }
  }
  JOINT RightHip
  {
    OFFSET -10.000000 0.000000 0.000000
    CHANNELS 3 Zrotation Xrotation Yrotation
    JOINT RightKnee
    {
      OFFSET 0.000000 -42.000000 0.000000
      CHANNELS 3 Zrotation Xrotation Yrotation
      JOINT RightAnkle
      {
        OFFSET 0.000000 -42.000000 0.000000
        CHANNELS 3 Zrotation Xrotation Yrotation
        End Site
        {
          OFFSET 0.000000 -7.000000 12.000000
        }
      }
    }
  }
}
MOTION
Frames: 23
Frame Time: 0.03333333333333333
50.148903 44.866824 0.008438 -3.115856 22.270226 -0.613435 0.000000 0.000000 0.000000 10.846807 60.724349 6.366649 36.945211 83.928652 24.556901 -47.857412 47.386750 -9.164016 0.300509 -1.225471 -0.228842 10.117900 -37.206262 -10.829404 29.121836 -34.560807 87.846589 -0.966017 -10.022465 8.037917 0.022765 -0.618958 0.897110 -32.864295 18.901121 -33.377299 -95.897754 74.659421 -125.720545 -32.070864 -65.791599 27.685660 58.681310 42.705131 108.348138 151.812802 78.043195 115.173184 -50.764571 -39.505831 37.688707
50.135368 44.706777 0.006977 -3.309631 26.533907 -0.801467 0.000000 0.000000 0.000000 11.948449 63.564915 7.525781 31.059834 82.365514 19.837244 -44.975120 43.052051 -10.153025 0.294849 -1.677698 -0.278017 8.451284 -33.354771 -8.769018 28.559302 -34.631032 88.106079 -0.800249 -9.736580 8.157930 0.016938 -0.424963 0.629518 -33.355688 19.286199 -33.947464 -95.230529 73.464452 -125.671681 -30.532340 -64.461515 27.310301 58.897606 42.645373 107.934627 158.912687 79.204149 120.993473 -52.932385 -40.675434 41.581334
50.119968 44.610468 0.006554 -3.459160 29.631409 -0.941836 0.000000 0.000000 0.000000 13.098155 65.829212 8.662451 27.753957 81.317639 17.535855 -43.248252 40.285132 -10.835625 0.276517 -1.911176 -0.302564 7.337634 -30.950565 -7.412554 28.163278 -34.608591 88.325309 -0.615828 -9.385781 8.262606 0.011031 -0.275929 0.421505 -34.040367 19.729205 -34.661416 -94.482177 72.370869 -125.668375 -29.147500 -62.803965 27.192001 59.200673 42.602279 107.566866 57.245644 80.081745 126.282448 -54.681764 -41.460049 44.626820
50.112076 44.563767 0.006483 -3.575369 31.960356 -1.049947 0.000000 0.000000 0.000000 14.046771 67.605602 9.602947 25.008232 80.216018 15.638024 -41.619061 38.391167 -11.392223 0.256253 -2.068067 -0.318567 6.400829 -28.781838 -6.316992 27.279012 -34.670405 88.745433 -0.460197 -9.066429 8.339365 0.004648 -0.177313 0.265169 -34.544886 20.295660 -35.359974 -93.807415 71.442713 -125.625260 -29.265986 -62.279408 28.372666 59.261804 42.610212 107.059193 -12.759400 80.724936 131.190532 -56.614978 -42.189546 47.586953
49.984522 44.612059 0.005943 -3.892253 34.252737 -1.235471 0.000000 0.000000 0.000000 16.581045 69.693372 11.887420 28.353870 81.037170 19.132036 -40.883612 35.948019 -10.367833 0.312507 -2.136181 -0.317596 7.782662 -31.931319 -7.298346 33.405469 -36.230454 82.610801 0.335587 -9.514589 9.722501 0.014917 -0.047146 0.192830 -39.977161 21.960817 -37.932257 -92.933773 70.335660 -125.874596 -27.983806 -59.718951 28.941007 59.369299 41.169175 106.871140 -60.102869 81.518245 136.576012 -51.064687 -42.572468 43.874451
49.882799 44.776097 0.005285 -4.344340 36.625488 -1.489620 0.000000 0.000000 0.000000 17.748397 71.297732 13.057991 29.746637 82.048133 20.619842 -40.157798 33.840013 -9.383190 0.429495 -2.465473 -0.346999 9.587278 -34.873630 -8.321514 41.343745 -38.497636 71.859367 2.340613 -9.484618 10.684107 0.060946 -0.163824 0.240643 -43.577782 21.936506 -38.269666 -92.687896 69.739874 -126.404891 -27.758622 -57.884247 30.585579 59.965637 39.455407 106.748953 -91.255250 82.305759 142.256795 -44.261642 -42.509891 39.235709
49.761529 45.015642 0.005237 -4.942572 39.457971 -1.851877 0.000000 0.000000 0.000000 16.763785 72.304619 12.457315 21.342860 82.974903 11.896011 -40.373236 31.184550 -8.407861 0.540766 -2.738327 -0.364607 11.735970 -37.681585 -9.462216 50.137894 -38.144226 56.676305 5.034573 -12.122626 12.820462 0.135814 -0.173050 0.286122 -46.432495 21.332889 -37.670080 -92.925787 69.359220 -126.879340 -26.368655 -55.526846 31.087980 60.515870 38.451497 106.764513 -113.138532 82.739633 146.216727 -38.474708 -42.239867 35.152458
49.565902 45.225221 0.005755 -5.745037 41.521760 -2.275466 0.000000 0.000000 0.000000 14.008531 73.044482 10.458772 1.524724 83.752216 -8.294161 -40.619987 28.287414 -7.778684 0.657182 -2.849507 -0.342694 13.101999 -39.250506 -9.863330 56.467669 -37.017621 49.134133 6.728894 -12.047695 13.333025 0.142481 -0.201249 0.268748 -46.640098 19.372747 -36.053975 -94.573692 69.352858 -128.141120 -28.651606 -56.173560 34.807946 61.010002 38.331670 106.950537 -124.280437 82.738938 153.028604 -34.482852 -42.913411 32.920352
49.452496 45.577440 0.005732 -6.826108 43.595884 -2.856536 0.000000 0.000000 0.000000 9.794898 71.694289 7.313595 -14.497046 83.517472 -24.859272 -40.368912 24.907178 -7.171807 0.972476 -3.690582 -0.343161 12.778366 -38.972095 -8.964310 62.414917 -34.591809 42.942186 7.973534 -12.723003 14.269397 0.147685 -0.203264 0.257278 -45.282839 16.566429 -33.893940 -95.887351 69.343268 -128.998648 -22.672619 -49.794396 28.289314 62.082310 38.436453 107.088753 -126.986277 82.250396 55.184907 -33.536461 -45.280283 33.828965
49.212275 46.669587 0.005781 -8.382270 45.274237 -3.654039 0.000000 0.000000 0.000000 5.667540 69.685383 4.361961 -27.227819 82.893751 -37.799799 -38.416694 21.523231 -6.049342 1.272036 -4.725595 -0.335740 12.563501 -38.356014 -7.825614 68.486598 -31.044495 35.860192 10.436316 -13.641994 15.236133 0.171722 -0.541654 0.313937 -43.940150 13.943748 -31.535348 -96.739939 69.374614 -129.672703 -17.746159 -44.378375 21.137497 63.535822 37.593728 106.522572 -133.317583 82.019878 90.595508 -34.384877 -47.925050 35.540496
48.794815 47.753608 0.005901 -10.429893 45.753618 -4.545002 0.000000 0.000000 0.000000 1.526841 67.495550 1.574227 -30.942536 81.177172 -40.774378 -36.844784 21.811202 -4.711699 1.925206 -10.063437 -0.589873 11.443040 -33.624103 -5.211487 71.542952 -28.767023 34.401153 12.704802 -13.348657 16.860326 0.434834 -0.575410 0.579474 -45.796247 12.336553 -29.964939 -93.832253 68.998668 -128.139350 -19.033979 -48.201186 20.963872 65.071698 36.805712 105.757370 -137.116779 81.452503 117.172245 -38.271298 -51.476908 40.099468
48.649102 48.845774 0.003987 -12.624350 45.517739 -5.399459 0.000000 0.000000 0.000000 -2.095992 66.193087 -0.846701 -31.756451 78.693494 -41.419248 -33.652570 17.536323 -3.947220 2.218691 -12.293244 -0.391600 10.261100 -31.379451 -3.279594 72.629980 -20.001165 40.607719 11.721055 -11.063260 18.629279 0.412072 -0.182149 0.606858 -50.343727 11.624727 -27.515035 -85.420982 67.603060 -121.032974 -19.556014 -57.352728 17.436999 66.260006 36.310630 104.035434 -142.433119 80.957409 133.972786 -48.200602 -55.616550 50.182244
48.498979 49.699874 0.001856 -14.933828 44.983926 -6.248433 0.000000 0.000000 0.000000 -5.487937 65.796901 -3.154860 -32.201516 76.355013 -41.475099 -29.369076 12.203599 -3.306303 2.252199 -13.932181 -0.089636 8.916336 -28.505259 -1.489569 72.616626 -6.537529 48.584261 9.179364 -8.213181 18.200975 0.320485 1.383493 0.551624 -55.115552 10.297504 -24.299130 -75.165056 64.840116 -112.620272 -20.714397 -61.831693 18.421372 67.646968 36.603371 101.590821 -146.246807 81.006565 146.027293 -59.817061 -58.514321 61.720805
48.420611 50.627810 0.004307 -16.728271 39.632063 -5.904699 0.000000 0.000000 0.000000 -7.616875 64.875238 -4.515289 -30.723664 74.170962 -39.449579 -26.002872 12.295524 -2.722732 2.490747 -15.834149 0.082920 8.738465 -28.128928 -0.418666 71.314808 5.522525 56.605964 7.452058 -3.901173 17.477113 0.354468 1.452960 1.092139 -45.943930 -4.742132 -25.940400 -62.706648 62.641395 -101.895311 -24.113156 -59.882529 25.823101 69.928683 34.613849 100.231505 -152.547419 81.457893 149.419505 -66.321807 -60.380407 67.562815
48.368233 51.437603 0.008301 -18.355313 33.897921 -5.350789 0.000000 0.000000 0.000000 -9.067049 63.667188 -5.359942 -28.499082 71.328905 -38.350361 -23.717594 14.125902 -2.268011 2.498490 -16.369535 0.187623 9.699366 -29.975499 -0.009989 69.433828 18.645574 63.728323 5.493983 -0.240304 15.969934 0.297553 2.073486 2.316263 -31.604281 -12.985277 -27.210522 -46.124472 59.855812 -81.078372 -38.542301 -59.725609 44.607823 67.986173 29.558360 99.471747 -160.170228 82.949867 145.865311 -69.725605 -63.051566 70.299918
48.303254 51.604655 0.011166 -19.391526 27.318866 -4.439675 0.000000 0.000000 0.000000 -9.754190 62.069134 -5.658179 -25.158249 68.189614 -36.395018 -21.277029 14.494851 -2.713168 2.246638 -15.027086 0.362767 9.754697 -29.413888 0.979872 68.916874 29.691506 70.636237 3.212070 2.274746 15.382090 -0.021084 1.704021 3.167335 -20.227965 -18.657241 -26.650835 -49.215366 66.101072 -83.441230 -46.077509 -59.472634 52.897867 64.723596 25.324480 99.157154 -72.856645 81.825982 126.254025 -62.130530 -63.987076 61.240757
48.171708 51.716587 0.011545 -20.376308 23.318061 -3.952839 0.000000 0.000000 0.000000 -10.007169 60.945795 -5.738288 -23.115198 66.379858 -35.878300 -19.278713 14.627146 -3.057889 1.962435 -14.130411 0.482839 9.508874 -28.468395 1.846488 69.851293 37.183598 76.854535 1.485940 3.619650 15.019777 -0.285005 1.374420 3.809262 -12.422842 -22.101310 -25.675355 -49.929674 69.678681 -83.747582 -52.757059 -59.891729 60.927102 61.996484 22.020471 98.851351 -12.632006 81.738625 111.180334 -59.271923 -65.586101 57.530865
48.110490 51.884009 0.010530 -20.982625 18.035707 -3.106412 0.000000 0.000000 0.000000 -10.473882 59.650809 -5.890244 -20.584408 63.983441 -33.153383 -17.022067 12.582147 -2.902452 1.698723 -12.723534 0.527649 9.460166 -27.548111 2.461574 63.773266 45.415972 74.411370 0.029851 5.042528 14.019332 -0.130923 -0.493553 3.807154 -5.468869 -26.757835 -26.426994 -64.480240 72.044977 -98.641549 -51.013187 -60.334228 60.050568 62.578557 24.246932 99.588379 33.685020 79.338039 111.214342 -56.108695 -66.811154 52.593956
48.012249 51.996814 0.008476 -21.490552 13.069283 -2.263576 0.000000 0.000000 0.000000 -10.637620 58.037752 -5.821439 -19.558470 63.095487 -32.890426 -15.328711 10.715719 -2.689925 1.527172 -11.498349 0.543496 9.685908 -27.118654 2.830285 57.572580 51.148377 70.679159 -0.922284 6.032517 13.098289 -0.016809 -1.700818 3.708522 0.249329 -30.786641 -27.731260 -76.584403 73.311193 -111.023467 -47.714376 -59.718226 57.228218 63.377129 26.155394 100.361505 65.911307 77.414840 111.675492 -52.397170 -67.445519 47.522302
48.003085 52.034479 0.010202 -21.914018 10.252480 -1.808203 0.000000 0.000000 0.000000 -10.699950 57.350529 -5.799491 -18.045762 61.823774 -31.721802 -14.341305 10.173269 -2.720555 1.419825 -10.587032 0.553933 9.927810 -27.418018 3.044830 55.525921 55.700997 70.746406 -1.628600 6.928744 12.490501 0.056393 -2.379337 3.510599 4.117873 -33.350861 -28.536241 -85.093327 73.970185 -119.557342 -46.368031 -59.870808 56.501022 63.925774 27.660328 101.041356 88.092160 75.826899 112.009237 -50.368199 -68.534216 44.437966
48.490055 52.490334 0.015335 -24.144380 -7.160554 2.704913 0.000000 0.000000 0.000000 -10.439965 56.011014 -5.529496 -14.779060 58.173623 -27.534428 -12.596461 7.404485 -2.883680 1.131896 -7.032327 0.419484 13.179857 -27.862653 1.794862 37.635869 59.843412 55.644965 -3.283176 8.244240 11.561303 -0.082487 -3.251733 4.845486 6.139977 -33.315979 -29.438215 -58.788808 60.764604 -84.863010 -33.888973 -50.459214 41.339415 62.192332 28.357530 101.378625 69.034678 67.816629 85.317040 -33.908435 -56.707149 31.010547
48.195913 52.008376 0.014147 -23.937192 -8.904113 2.704599 0.000000 0.000000 0.000000 -10.041243 55.943469 -5.319604 -13.355377 57.609153 -25.454896 -12.777651 9.312556 -3.235150 1.040533 -6.007749 0.380255 13.357391 -27.951324 1.880772 18.412093 57.877579 37.424606 -8.263482 14.904845 9.081994 0.042791 -2.898813 4.166212 5.859869 -31.229567 -28.762035 -75.206086 66.256262 -102.401287 -53.059674 -50.190843 60.415699 57.376978 21.137230 99.114325 88.506246 68.872446 90.531545 -17.172321 -63.287259 11.727794
48.059198 50.499545 0.011818 -23.679098 -13.836529 3.470224 0.000000 0.000000 0.000000 -9.570126 54.383900 -4.930607 -13.077418 58.505048 -24.724818 -14.021188 12.775476 -3.087082 0.906970 -4.745337 0.277980 17.252961 -29.119008 -0.407966 7.959145 45.011017 25.004677 -25.420598 16.585446 1.092949 0.545698 -2.222656 2.803461 -0.260452 -21.788468 -26.166864 -81.542533 65.638734 -108.135190 -60.385277 -50.666621 75.314387 54.624096 15.991833 98.082362 97.922645 67.024231 90.009551 -24.014505 -60.661836 14.664926
